<svg width="27" height="32" viewBox="0 0 27 32" fill="none" xmlns="http://www.w3.org/2000/svg">
<g filter="url(#filter0_d_35_236)">
<path d="M24.2601 4.61406C25.2362 3.55918 25.2362 1.84605 24.2601 0.791163C23.284 -0.263721 21.6988 -0.263721 20.7227 0.791163L12.5 9.68595L4.26948 0.799602C3.29338 -0.255282 1.70818 -0.255282 0.732079 0.799602C-0.244026 1.85449 -0.244026 3.56762 0.732079 4.6225L8.96259 13.5088L0.739888 22.4036C-0.236217 23.4585 -0.236217 25.1717 0.739888 26.2265C1.71599 27.2814 3.30119 27.2814 4.27729 26.2265L12.5 17.3317L20.7305 26.2181C21.7066 27.273 23.2918 27.273 24.2679 26.2181C25.244 25.1632 25.244 23.4501 24.2679 22.3952L16.0374 13.5088L24.2601 4.61406Z" fill="#FF0000"/>
<path d="M24.2601 4.61406C25.2362 3.55918 25.2362 1.84605 24.2601 0.791163C23.284 -0.263721 21.6988 -0.263721 20.7227 0.791163L12.5 9.68595L4.26948 0.799602C3.29338 -0.255282 1.70818 -0.255282 0.732079 0.799602C-0.244026 1.85449 -0.244026 3.56762 0.732079 4.6225L8.96259 13.5088L0.739888 22.4036C-0.236217 23.4585 -0.236217 25.1717 0.739888 26.2265C1.71599 27.2814 3.30119 27.2814 4.27729 26.2265L12.5 17.3317L20.7305 26.2181C21.7066 27.273 23.2918 27.273 24.2679 26.2181C25.244 25.1632 25.244 23.4501 24.2679 22.3952L16.0374 13.5088L24.2601 4.61406Z" fill="white"/>
</g>
<defs>
<filter id="filter0_d_35_236" x="0" y="0" width="27" height="31.0177" filterUnits="userSpaceOnUse" color-interpolation-filters="sRGB">
<feFlood flood-opacity="0" result="BackgroundImageFix"/>
<feColorMatrix in="SourceAlpha" type="matrix" values="0 0 0 0 0 0 0 0 0 0 0 0 0 0 0 0 0 0 127 0" result="hardAlpha"/>
<feOffset dx="2" dy="4"/>
<feComposite in2="hardAlpha" operator="out"/>
<feColorMatrix type="matrix" values="0 0 0 0 0 0 0 0 0 0 0 0 0 0 0 0 0 0 0.97 0"/>
<feBlend mode="normal" in2="BackgroundImageFix" result="effect1_dropShadow_35_236"/>
<feBlend mode="normal" in="SourceGraphic" in2="effect1_dropShadow_35_236" result="shape"/>
</filter>
</defs>
</svg>
