<svg width="25" height="25" viewBox="0 0 25 25" fill="none" xmlns="http://www.w3.org/2000/svg">
<g clip-path="url(#clip0_35_203)">
<path d="M20.0341 11.2793L20.5859 10.7275L18.9306 9.07227L15.8984 6.04004L14.2431 4.38477L13.6913 4.93652L12.5878 6.04004L2.86126 15.7666C2.35345 16.2744 1.98236 16.9043 1.77728 17.5928L0.0487633 23.4717C-0.073307 23.8818 0.0389976 24.3262 0.346615 24.6289C0.654232 24.9316 1.09369 25.0439 1.50384 24.9268L7.37787 23.1982C8.06634 22.9932 8.69622 22.6221 9.20404 22.1143L18.9306 12.3877L20.0341 11.2793ZM7.81244 19.502L7.3681 20.6103C7.17279 20.7617 6.95306 20.874 6.71869 20.9473L2.90033 22.0703L4.02337 18.2568C4.09173 18.0176 4.20892 17.7978 4.36029 17.6074L5.46869 17.1631V18.7256C5.46869 19.1553 5.82025 19.5068 6.24994 19.5068H7.81244V19.502ZM17.7099 0.913086L17.0068 1.62109L15.9033 2.72461L15.3466 3.27637L17.0019 4.93164L20.0341 7.96387L21.6894 9.61914L22.2411 9.06738L23.3447 7.96387L24.0527 7.25586C25.2734 6.03516 25.2734 4.05762 24.0527 2.83691L22.1337 0.913086C20.913 -0.307617 18.9355 -0.307617 17.7148 0.913086H17.7099ZM15.3954 9.11621L8.36419 16.1475C8.06146 16.4502 7.56341 16.4502 7.26068 16.1475C6.95794 15.8447 6.95794 15.3467 7.26068 15.0439L14.2919 8.0127C14.5947 7.70996 15.0927 7.70996 15.3954 8.0127C15.6982 8.31543 15.6982 8.81348 15.3954 9.11621Z" fill="#FFC90A"/>
</g>
<defs>
<clipPath id="clip0_35_203">
<rect width="25" height="25" fill="white"/>
</clipPath>
</defs>
</svg>
