<svg width="44" height="32" viewBox="0 0 44 32" fill="none" xmlns="http://www.w3.org/2000/svg">
<path d="M35.0824 19.0193C34.5674 19.0193 34.1494 19.4363 34.1494 19.9523C34.1494 20.4673 34.5674 20.8853 35.0824 20.8853C35.5984 20.8853 36.0155 20.4673 36.0155 19.9523C36.0155 19.4363 35.5984 19.0193 35.0824 19.0193Z" fill="#D86ACD"/>
<path d="M32.888 16.8239C32.372 16.8239 31.955 17.2409 31.955 17.7569C31.955 18.2719 32.372 18.6899 32.888 18.6899C33.403 18.6899 33.821 18.2719 33.821 17.7569C33.821 17.2409 33.403 16.8239 32.888 16.8239Z" fill="#D86ACD"/>
<path d="M32.888 21.2137C32.372 21.2137 31.955 21.6317 31.955 22.1467C31.955 22.6627 32.372 23.0797 32.888 23.0797C33.403 23.0797 33.821 22.6627 33.821 22.1467C33.821 21.6316 33.403 21.2137 32.888 21.2137Z" fill="#D86ACD"/>
<path d="M30.6927 19.0193C30.1767 19.0193 29.7596 19.4363 29.7596 19.9523C29.7596 20.4673 30.1767 20.8853 30.6927 20.8853C31.2077 20.8853 31.6257 20.4673 31.6257 19.9523C31.6257 19.4363 31.2077 19.0193 30.6927 19.0193Z" fill="#D86ACD"/>
<path d="M13.3073 19.0192H12.045V17.7569C12.045 17.2416 11.6272 16.8239 11.1119 16.8239C10.5967 16.8239 10.1789 17.2416 10.1789 17.7569V19.0192H8.91752C8.40224 19.0192 7.9845 19.437 7.9845 19.9523C7.9845 20.4675 8.40224 20.8853 8.91752 20.8853H10.1789V22.1467C10.1789 22.662 10.5966 23.0797 11.1119 23.0797C11.6273 23.0797 12.045 22.662 12.045 22.1467V20.8853H13.3073C13.8226 20.8853 14.2403 20.4675 14.2403 19.9523C14.2402 19.4369 13.8226 19.0192 13.3073 19.0192Z" fill="#D86ACD"/>
<path d="M20.2543 17.8997C19.739 17.8997 19.3213 18.3173 19.3213 18.8327V21.0709C19.3213 21.5862 19.739 22.0039 20.2543 22.0039C20.7696 22.0039 21.1873 21.5862 21.1873 21.0709V18.8327C21.1873 18.3173 20.7696 17.8997 20.2543 17.8997Z" fill="#D86ACD"/>
<path d="M23.7456 17.8997C23.2304 17.8997 22.8126 18.3173 22.8126 18.8327V21.0709C22.8126 21.5862 23.2304 22.0039 23.7456 22.0039C24.2609 22.0039 24.6787 21.5862 24.6787 21.0709V18.8327C24.6786 18.3173 24.2609 17.8997 23.7456 17.8997Z" fill="#D86ACD"/>
<path d="M11.112 13.0369C7.29925 13.0369 4.19751 16.1391 4.19751 19.9523C4.19751 23.7649 7.29934 26.8666 11.112 26.8666C14.9251 26.8666 18.0273 23.7649 18.0273 19.9523C18.0273 16.1391 14.9251 13.0369 11.112 13.0369ZM11.112 25.0006C8.32827 25.0006 6.06356 22.736 6.06356 19.9523C6.06356 17.1681 8.32818 14.9029 11.112 14.9029C13.8961 14.9029 16.1613 17.1681 16.1613 19.9523C16.1613 22.7359 13.8962 25.0006 11.112 25.0006Z" fill="#D86ACD"/>
<path d="M32.888 13.0369C29.0749 13.0369 25.9727 16.1391 25.9727 19.9523C25.9727 23.7649 29.0748 26.8666 32.888 26.8666C36.7007 26.8666 39.8025 23.7649 39.8025 19.9523C39.8025 16.1391 36.7007 13.0369 32.888 13.0369ZM32.888 25.0006C30.1038 25.0006 27.8387 22.736 27.8387 19.9523C27.8387 17.1681 30.1038 14.9029 32.888 14.9029C35.6717 14.9029 37.9364 17.1681 37.9364 19.9523C37.9365 22.7359 35.6718 25.0006 32.888 25.0006Z" fill="#D86ACD"/>
<path d="M28.8808 8.83936H28.5542C28.039 8.83936 27.6212 9.2571 27.6212 9.77238C27.6212 10.2877 28.039 10.7054 28.5542 10.7054H28.8808C29.3961 10.7054 29.8138 10.2877 29.8138 9.77238C29.8137 9.25701 29.3961 8.83936 28.8808 8.83936Z" fill="#D86ACD"/>
<path d="M32.888 8.83936H31.6257C31.1104 8.83936 30.6927 9.2571 30.6927 9.77238C30.6927 10.2876 31.1104 10.7054 31.6257 10.7054H32.888C37.9863 10.7054 42.134 14.8536 42.134 19.9523C42.134 25.0505 37.9863 29.1982 32.888 29.1982C30.3428 29.1982 27.971 28.1856 26.2097 26.3472C26.0337 26.1634 25.7904 26.0596 25.536 26.0596H18.4639C18.2095 26.0596 17.9662 26.1634 17.7902 26.3472C16.0289 28.1856 13.6571 29.1982 11.1119 29.1982C6.01365 29.1982 1.86596 25.0505 1.86596 19.9523C1.86596 14.8535 6.01365 10.7054 11.1119 10.7054H25.4987C26.014 10.7054 26.4317 10.2876 26.4317 9.77238C26.4317 9.2571 26.0141 8.83936 25.4987 8.83936H25.2188V6.45184C25.2188 5.93656 24.8011 5.51882 24.2858 5.51882H22.9329V1.86897C22.9329 1.35369 22.5152 0.935944 21.9999 0.935944C21.4846 0.935944 21.0669 1.35369 21.0669 1.86897V5.51882H19.7141C19.1988 5.51882 18.781 5.93648 18.781 6.45184V8.83936H11.1118C4.9848 8.83936 0 13.8245 0 19.9522C0 26.0794 4.9848 31.0642 11.112 31.0642C14.0354 31.0642 16.7682 29.9528 18.8524 27.9256H25.1477C27.2318 29.9527 29.9646 31.0642 32.8881 31.0642C39.0153 31.0642 44.0001 26.0794 44.0001 19.9522C44 13.8245 39.0152 8.83936 32.888 8.83936ZM20.6472 7.38478H23.3528V8.6686H20.6472V7.38478Z" fill="#D86ACD"/>
</svg>
