<svg width="32" height="33" viewBox="0 0 32 33" fill="none" xmlns="http://www.w3.org/2000/svg">
<g filter="url(#filter0_d_35_237)">
<path d="M12.0098 6.69923C12.5713 6.94825 12.9375 7.50977 12.9375 8.12501L12.9375 11.25H18.4062C23.1523 11.25 27 15.0977 27 19.8438C27 25.376 23.0205 27.8467 22.1074 28.3447C21.9854 28.4131 21.8486 28.4375 21.7119 28.4375C21.1797 28.4375 20.75 28.0029 20.75 27.4756C20.75 27.1094 20.96 26.7725 21.2285 26.5234C21.6875 26.0938 22.3125 25.2344 22.3125 23.7549C22.3125 21.167 20.2129 19.0674 17.625 19.0674L12.9375 19.0674V22.1924C12.9375 22.8076 12.5762 23.3691 12.0098 23.6182C11.4434 23.8672 10.7891 23.7647 10.3301 23.3545L2.51758 16.3232C2.19043 16.0205 2 15.6006 2 15.1563C2 14.7119 2.19043 14.292 2.51758 13.9941L10.3301 6.9629C10.7891 6.54786 11.4482 6.44532 12.0098 6.69923Z" fill="white"/>
</g>
<defs>
<filter id="filter0_d_35_237" x="0" y="0" width="32" height="33" filterUnits="userSpaceOnUse" color-interpolation-filters="sRGB">
<feFlood flood-opacity="0" result="BackgroundImageFix"/>
<feColorMatrix in="SourceAlpha" type="matrix" values="0 0 0 0 0 0 0 0 0 0 0 0 0 0 0 0 0 0 127 0" result="hardAlpha"/>
<feOffset dx="-2" dy="3"/>
<feColorMatrix type="matrix" values="0 0 0 0 0.847059 0 0 0 0 0.415686 0 0 0 0 0.803922 0 0 0 1 0"/>
<feBlend mode="normal" in2="BackgroundImageFix" result="effect1_dropShadow_35_237"/>
<feBlend mode="normal" in="SourceGraphic" in2="effect1_dropShadow_35_237" result="shape"/>
</filter>
</defs>
</svg>
